<?xml version="1.0" standalone="no"?><!DOCTYPE svg PUBLIC "-//W3C//DTD SVG 1.1//EN" "http://www.w3.org/Graphics/SVG/1.1/DTD/svg11.dtd"><svg t="1669121429975" class="icon" viewBox="0 0 1024 1024" version="1.1" xmlns="http://www.w3.org/2000/svg" p-id="8089" xmlns:xlink="http://www.w3.org/1999/xlink" width="200" height="200"><path d="M734.464 404.053333a223.786667 223.786667 0 0 0-444.8 0 210.432 210.432 0 0 0 46.378667 415.146667l351.957333-0.170667h7.466667a210.517333 210.517333 0 0 0 38.997333-414.976z m-48.469333 338.389334H336.512a138.24 138.24 0 0 1-24.362667-273.066667l42.282667-9.642667 5.077333-43.008 1.066667-6.784a153.6 153.6 0 0 1 304 6.954667l5.12 43.008 42.24 9.642667 6.357333 1.621333a138.24 138.24 0 0 1-32.298666 271.274667z" p-id="8090" fill="#1296db"></path><path d="M485.290667 581.290667l-59.733334-59.733334-59.733333 59.733334 119.296 119.765333 179.84-179.84-59.733333-59.733333z" p-id="8091" fill="#1296db"></path></svg>